<svg width="700" height="700" xmlns="http://www.w3.org/2000/svg">

 <g>
  <title>background</title>
  <rect fill="#ffffff" id="canvas_background" height="702" width="702" y="-1" x="-1"/>
 </g>
 <g>
  <title>Layer 1</title>
  <path id="svg_1" d="m350,110.25c-73.5,0 -133,59.5 -133,133c0,71.75 122.5,194.25 127.75,199.5l7,5.25l7,-5.25c5.25,-5.25 127.75,-126 127.75,-199.5c-3.5,-71.75 -63,-133 -136.5,-133zm0,173.25c-21,0 -38.5,-17.5 -38.5,-38.5s17.5,-38.5 38.5,-38.5s38.5,17.5 38.5,38.5s-17.5,38.5 -38.5,38.5z"/>
  <ellipse stroke="#ffffff" ry="235.966455" rx="256.221085" id="svg_2" cy="251.195391" cx="346.455436" stroke-width="5.5" fill="none"/>
 </g>
</svg>