<?xml version="1.0" encoding="UTF-8"?>
<svg width="700pt" height="700pt" version="1.1" viewBox="0 0 700 700" xmlns="http://www.w3.org/2000/svg" xmlns:xlink="http://www.w3.org/1999/xlink">
 <defs>
  <symbol id="u" overflow="visible">
   <path d="m3.75-0.21875c-0.19922 0.09375-0.40234 0.16797-0.60938 0.21875-0.21094 0.050781-0.42969 0.078125-0.65625 0.078125-0.67969 0-1.2148-0.1875-1.6094-0.5625-0.39844-0.38281-0.59375-0.89844-0.59375-1.5469 0-0.65625 0.19531-1.1719 0.59375-1.5469 0.39453-0.38281 0.92969-0.57812 1.6094-0.57812 0.22656 0 0.44531 0.027344 0.65625 0.078125 0.20703 0.054687 0.41016 0.13281 0.60938 0.23438v0.84375c-0.19922-0.13281-0.39062-0.23438-0.57812-0.29688s-0.38672-0.09375-0.59375-0.09375c-0.375 0-0.67188 0.12109-0.89062 0.35938-0.21875 0.24219-0.32812 0.57422-0.32812 1 0 0.41797 0.10938 0.74609 0.32812 0.98438 0.21875 0.24219 0.51562 0.35938 0.89062 0.35938 0.20703 0 0.40625-0.03125 0.59375-0.09375s0.37891-0.15625 0.57812-0.28125z"/>
  </symbol>
  <symbol id="d" overflow="visible">
   <path d="m2.75-2.2188c-0.09375-0.039062-0.18359-0.070312-0.26562-0.09375-0.085937-0.019531-0.16797-0.03125-0.25-0.03125-0.25 0-0.44531 0.085938-0.57812 0.25-0.13672 0.15625-0.20312 0.38672-0.20312 0.6875v1.4062h-0.98438v-3.0625h0.98438v0.5c0.125-0.19531 0.26562-0.34375 0.42188-0.4375 0.16406-0.09375 0.36328-0.14062 0.59375-0.14062 0.03125 0 0.0625 0.007813 0.09375 0.015625 0.039062 0 0.097656 0.007812 0.17188 0.015625z"/>
  </symbol>
  <symbol id="a" overflow="visible">
   <path d="m3.5156-1.5312v0.26562h-2.2812c0.019531 0.23047 0.10156 0.40234 0.25 0.51562 0.14453 0.11719 0.34375 0.17188 0.59375 0.17188 0.20703 0 0.41406-0.023437 0.625-0.078125 0.21875-0.0625 0.44141-0.15625 0.67188-0.28125v0.75c-0.23047 0.09375-0.46094 0.16406-0.6875 0.20312-0.23047 0.039062-0.46484 0.0625-0.70312 0.0625-0.55469 0-0.98438-0.14062-1.2969-0.42188-0.30469-0.28125-0.45312-0.67578-0.45312-1.1875 0-0.5 0.14844-0.89062 0.45312-1.1719 0.30078-0.28906 0.71875-0.4375 1.25-0.4375 0.47656 0 0.85938 0.14844 1.1406 0.4375 0.28906 0.29297 0.4375 0.68359 0.4375 1.1719zm-1-0.32812c0-0.1875-0.058594-0.33594-0.17188-0.45312-0.10547-0.11328-0.24219-0.17188-0.40625-0.17188-0.19922 0-0.35547 0.058594-0.46875 0.17188-0.11719 0.10547-0.1875 0.25781-0.21875 0.45312z"/>
  </symbol>
  <symbol id="c" overflow="visible">
   <path d="m1.8438-1.375c-0.21094 0-0.36719 0.039062-0.46875 0.10938-0.10547 0.0625-0.15625 0.16406-0.15625 0.29688 0 0.125 0.039062 0.22656 0.125 0.29688 0.082031 0.0625 0.20312 0.09375 0.35938 0.09375 0.17578 0 0.32812-0.0625 0.45312-0.1875 0.125-0.13281 0.1875-0.30078 0.1875-0.5v-0.10938zm1.4844-0.375v1.75h-0.98438v-0.45312c-0.125 0.1875-0.27344 0.32422-0.4375 0.40625-0.16797 0.082031-0.36719 0.125-0.59375 0.125-0.32422 0-0.58594-0.085938-0.78125-0.26562-0.19922-0.1875-0.29688-0.42969-0.29688-0.73438 0-0.35156 0.125-0.61328 0.375-0.78125 0.25-0.16406 0.63281-0.25 1.1562-0.25h0.57812v-0.078125c0-0.15625-0.0625-0.26953-0.1875-0.34375-0.11719-0.070312-0.30469-0.10938-0.5625-0.10938-0.21094 0-0.40625 0.023437-0.59375 0.0625-0.17969 0.042969-0.33984 0.10547-0.48438 0.1875v-0.75c0.20703-0.039063 0.41406-0.078125 0.625-0.10938 0.20703-0.03125 0.41406-0.046875 0.625-0.046875 0.55078 0 0.94531 0.10938 1.1875 0.32812 0.25 0.21875 0.375 0.57422 0.375 1.0625z"/>
  </symbol>
  <symbol id="b" overflow="visible">
   <path d="m1.5312-3.9219v0.85938h1.0156v0.70312h-1.0156v1.2969c0 0.14844 0.023438 0.24609 0.078125 0.29688 0.0625 0.042969 0.17578 0.0625 0.34375 0.0625h0.5v0.70312h-0.82812c-0.38672 0-0.66406-0.078125-0.82812-0.23438-0.15625-0.16406-0.23438-0.44141-0.23438-0.82812v-1.2969h-0.48438v-0.70312h0.48438v-0.85938z"/>
  </symbol>
  <symbol id="j" overflow="visible">
   <path d="m2.5469-2.6094v-1.6406h0.98438v4.25h-0.98438v-0.4375c-0.13672 0.17969-0.28906 0.30859-0.45312 0.39062-0.15625 0.082031-0.33984 0.125-0.54688 0.125-0.375 0-0.6875-0.14453-0.9375-0.4375-0.24219-0.30078-0.35938-0.69141-0.35938-1.1719 0-0.46875 0.11719-0.85156 0.35938-1.1562 0.25-0.30078 0.5625-0.45312 0.9375-0.45312 0.20703 0 0.39062 0.046875 0.54688 0.14062 0.16406 0.085938 0.31641 0.21484 0.45312 0.39062zm-0.64062 1.9844c0.20703 0 0.36328-0.078125 0.46875-0.23438 0.11328-0.15625 0.17188-0.37891 0.17188-0.67188 0-0.28906-0.058594-0.50781-0.17188-0.65625-0.10547-0.15625-0.26172-0.23438-0.46875-0.23438-0.21094 0-0.37109 0.078125-0.48438 0.23438-0.10547 0.14844-0.15625 0.36719-0.15625 0.65625 0 0.29297 0.050781 0.51562 0.15625 0.67188 0.11328 0.15625 0.27344 0.23438 0.48438 0.23438z"/>
  </symbol>
  <symbol id="i" overflow="visible">
   <path d="m2.0938-0.625c0.20703 0 0.36719-0.078125 0.48438-0.23438 0.11328-0.15625 0.17188-0.37891 0.17188-0.67188 0-0.28906-0.058594-0.50781-0.17188-0.65625-0.11719-0.15625-0.27734-0.23438-0.48438-0.23438-0.21094 0-0.37109 0.078125-0.48438 0.23438-0.10547 0.14844-0.15625 0.36719-0.15625 0.65625 0 0.29297 0.050781 0.51562 0.15625 0.67188 0.11328 0.15625 0.27344 0.23438 0.48438 0.23438zm-0.64062-1.9844c0.13281-0.17578 0.28125-0.30469 0.4375-0.39062 0.16406-0.09375 0.35156-0.14062 0.5625-0.14062 0.38281 0 0.69531 0.15234 0.9375 0.45312 0.23828 0.30469 0.35938 0.6875 0.35938 1.1562 0 0.48047-0.12109 0.87109-0.35938 1.1719-0.24219 0.29297-0.55469 0.4375-0.9375 0.4375-0.21094 0-0.39844-0.042969-0.5625-0.125-0.15625-0.082031-0.30469-0.21094-0.4375-0.39062v0.4375h-0.98438v-4.25h0.98438z"/>
  </symbol>
  <symbol id="g" overflow="visible">
   <path d="m0.0625-3.0625h0.98438l0.82812 2.0781 0.6875-2.0781h0.98438l-1.2812 3.3594c-0.13672 0.33203-0.29297 0.56641-0.46875 0.70312-0.16797 0.13281-0.39062 0.20312-0.67188 0.20312h-0.5625v-0.64062h0.29688c0.16406 0 0.28516-0.027344 0.35938-0.078125 0.082031-0.054687 0.14453-0.14844 0.1875-0.28125l0.03125-0.078125z"/>
  </symbol>
  <symbol id="f" overflow="visible">
   <path d="m0.51562-4.0781h1.1719l1.4844 2.7969v-2.7969h1v4.0781h-1.1719l-1.4844-2.7969v2.7969h-1z"/>
  </symbol>
  <symbol id="h" overflow="visible">
   <path d="m3.5469-1.8594v1.8594h-0.98438v-1.4219c0-0.26953-0.007812-0.45312-0.015625-0.54688-0.011719-0.10156-0.03125-0.17578-0.0625-0.21875-0.042969-0.0625-0.09375-0.10938-0.15625-0.14062-0.0625-0.039063-0.13672-0.0625-0.21875-0.0625-0.21094 0-0.37109 0.078125-0.48438 0.23438-0.11719 0.15625-0.17188 0.375-0.17188 0.65625v1.5h-0.98438v-4.25h0.98438v1.6406c0.14453-0.17578 0.30078-0.30469 0.46875-0.39062 0.16406-0.09375 0.34766-0.14062 0.54688-0.14062 0.35156 0 0.61719 0.10938 0.79688 0.32812 0.1875 0.21875 0.28125 0.53906 0.28125 0.95312z"/>
  </symbol>
  <symbol id="t" overflow="visible">
   <path d="m0.03125-4.0781h3.75v0.79688h-1.3438v3.2812h-1.0625v-3.2812h-1.3438z"/>
  </symbol>
  <symbol id="s" overflow="visible">
   <path d="m2.5469-0.51562c-0.13672 0.17969-0.28906 0.30859-0.45312 0.39062-0.15625 0.085938-0.33984 0.125-0.54688 0.125-0.375 0-0.6875-0.14453-0.9375-0.4375-0.24219-0.28906-0.35938-0.66406-0.35938-1.125 0-0.45703 0.11719-0.83203 0.35938-1.125 0.25-0.28906 0.5625-0.4375 0.9375-0.4375 0.20703 0 0.39062 0.042969 0.54688 0.125 0.16406 0.085938 0.31641 0.21484 0.45312 0.39062v-0.45312h0.98438v2.75c0 0.48828-0.15625 0.86328-0.46875 1.125-0.30469 0.25781-0.75 0.39062-1.3438 0.39062-0.1875 0-0.375-0.015625-0.5625-0.046875-0.17969-0.023438-0.35547-0.0625-0.53125-0.125v-0.76562c0.16406 0.10156 0.33203 0.17578 0.5 0.21875 0.16406 0.050781 0.33203 0.078125 0.5 0.078125 0.32031 0 0.55469-0.074219 0.70312-0.21875 0.14453-0.13672 0.21875-0.35156 0.21875-0.65625zm-0.64062-1.9062c-0.19922 0-0.35547 0.078125-0.46875 0.23438-0.11719 0.14844-0.17188 0.35547-0.17188 0.625 0 0.28125 0.050781 0.49609 0.15625 0.64062 0.11328 0.14844 0.27344 0.21875 0.48438 0.21875 0.20703 0 0.36328-0.070313 0.46875-0.21875 0.11328-0.15625 0.17188-0.36719 0.17188-0.64062 0-0.26953-0.058594-0.47656-0.17188-0.625-0.10547-0.15625-0.26172-0.23438-0.46875-0.23438z"/>
  </symbol>
  <symbol id="r" overflow="visible">
   <path d="m0.46875-3.0625h0.98438v3.0625h-0.98438zm0-1.1875h0.98438v0.79688h-0.98438z"/>
  </symbol>
  <symbol id="q" overflow="visible">
   <path d="m2.4844-4.25v0.64062h-0.54688c-0.13672 0-0.23047 0.027344-0.28125 0.078125-0.054688 0.054688-0.078125 0.14062-0.078125 0.26562v0.20312h0.82812v0.70312h-0.82812v2.3594h-0.98438v-2.3594h-0.48438v-0.70312h0.48438v-0.20312c0-0.33203 0.09375-0.57812 0.28125-0.73438 0.1875-0.16406 0.47266-0.25 0.85938-0.25z"/>
  </symbol>
  <symbol id="e" overflow="visible">
   <path d="m1.9219-2.4375c-0.21875 0-0.38672 0.078125-0.5 0.23438-0.10547 0.15625-0.15625 0.38281-0.15625 0.67188 0 0.29297 0.050781 0.51562 0.15625 0.67188 0.11328 0.15625 0.28125 0.23438 0.5 0.23438s0.37891-0.078125 0.48438-0.23438c0.11328-0.15625 0.17188-0.37891 0.17188-0.67188 0-0.28906-0.058594-0.51562-0.17188-0.67188-0.10547-0.15625-0.26562-0.23438-0.48438-0.23438zm0-0.70312c0.53125 0 0.94141 0.14844 1.2344 0.4375 0.30078 0.28125 0.45312 0.67188 0.45312 1.1719 0 0.51172-0.15234 0.90625-0.45312 1.1875-0.29297 0.28125-0.70312 0.42188-1.2344 0.42188-0.52344 0-0.93359-0.14062-1.2344-0.42188-0.30469-0.28125-0.45312-0.67578-0.45312-1.1875 0-0.5 0.14844-0.89062 0.45312-1.1719 0.30078-0.28906 0.71094-0.4375 1.2344-0.4375z"/>
  </symbol>
  <symbol id="p" overflow="visible">
   <path d="m3.3125-2.5469c0.11328-0.1875 0.25391-0.33203 0.42188-0.4375 0.17578-0.10156 0.36719-0.15625 0.57812-0.15625 0.34375 0 0.60938 0.10938 0.79688 0.32812s0.28125 0.53906 0.28125 0.95312v1.8594h-0.98438v-1.5938-0.0625-0.125c0-0.21875-0.03125-0.375-0.09375-0.46875s-0.16797-0.14062-0.3125-0.14062c-0.1875 0-0.33594 0.078125-0.4375 0.23438-0.09375 0.14844-0.14062 0.36719-0.14062 0.65625v1.5h-0.98438v-1.5938c0-0.34375-0.03125-0.5625-0.09375-0.65625-0.054688-0.09375-0.15625-0.14062-0.3125-0.14062-0.1875 0-0.33594 0.078125-0.4375 0.23438-0.09375 0.14844-0.14062 0.36719-0.14062 0.65625v1.5h-0.98438v-3.0625h0.98438v0.45312c0.11328-0.17578 0.25-0.30469 0.40625-0.39062 0.15625-0.09375 0.32812-0.14062 0.51562-0.14062 0.20703 0 0.39062 0.054687 0.54688 0.15625 0.16406 0.10547 0.29688 0.25 0.39062 0.4375z"/>
  </symbol>
  <symbol id="o" overflow="visible">
   <path d="m0.4375-1.1875v-1.875h0.98438v0.3125 0.625 0.5c0 0.24219 0.003906 0.41797 0.015625 0.53125 0.007812 0.10547 0.03125 0.18359 0.0625 0.23438 0.039062 0.0625 0.09375 0.11719 0.15625 0.15625 0.0625 0.03125 0.13281 0.046875 0.21875 0.046875 0.20703 0 0.36719-0.078125 0.48438-0.23438 0.11328-0.15625 0.17188-0.375 0.17188-0.65625v-1.5156h0.98438v3.0625h-0.98438v-0.4375c-0.14844 0.17969-0.30469 0.30859-0.46875 0.39062-0.16797 0.082031-0.35156 0.125-0.54688 0.125-0.35547 0-0.625-0.10938-0.8125-0.32812-0.17969-0.21875-0.26562-0.53125-0.26562-0.9375z"/>
  </symbol>
  <symbol id="n" overflow="visible">
   <path d="m3.5469-1.8594v1.8594h-0.98438v-1.4219c0-0.26953-0.007812-0.45312-0.015625-0.54688-0.011719-0.10156-0.03125-0.17578-0.0625-0.21875-0.042969-0.0625-0.09375-0.10938-0.15625-0.14062-0.0625-0.039063-0.13672-0.0625-0.21875-0.0625-0.21094 0-0.37109 0.078125-0.48438 0.23438-0.11719 0.15625-0.17188 0.375-0.17188 0.65625v1.5h-0.98438v-3.0625h0.98438v0.45312c0.14453-0.17578 0.30078-0.30469 0.46875-0.39062 0.16406-0.09375 0.34766-0.14062 0.54688-0.14062 0.35156 0 0.61719 0.10938 0.79688 0.32812 0.1875 0.21875 0.28125 0.53906 0.28125 0.95312z"/>
  </symbol>
  <symbol id="m" overflow="visible">
   <path d="m0.51562-4.0781h1.75c0.50781 0 0.90625 0.11719 1.1875 0.34375 0.28125 0.23047 0.42188 0.55859 0.42188 0.98438 0 0.42969-0.14062 0.75781-0.42188 0.98438-0.28125 0.23047-0.67969 0.34375-1.1875 0.34375h-0.70312v1.4219h-1.0469zm1.0469 0.76562v1.1406h0.57812c0.20703 0 0.36328-0.046875 0.46875-0.14062 0.11328-0.10156 0.17188-0.25 0.17188-0.4375 0-0.17578-0.058594-0.3125-0.17188-0.40625-0.10547-0.10156-0.26172-0.15625-0.46875-0.15625z"/>
  </symbol>
  <symbol id="l" overflow="visible">
   <path d="m0.46875-3.0625h0.98438v3.0156c0 0.40625-0.10156 0.71094-0.29688 0.92188-0.19922 0.21875-0.48438 0.32812-0.85938 0.32812h-0.48438v-0.64062h0.17188c0.1875 0 0.3125-0.042969 0.375-0.125 0.070313-0.085938 0.10938-0.24609 0.10938-0.48438zm0-1.1875h0.98438v0.79688h-0.98438z"/>
  </symbol>
  <symbol id="k" overflow="visible">
   <path d="m2.9375-2.9688v0.79688c-0.125-0.082031-0.25781-0.14453-0.39062-0.1875-0.13672-0.050781-0.27734-0.078125-0.42188-0.078125-0.27344 0-0.48438 0.085938-0.64062 0.25-0.14844 0.15625-0.21875 0.375-0.21875 0.65625 0 0.29297 0.070313 0.51562 0.21875 0.67188 0.15625 0.15625 0.36719 0.23438 0.64062 0.23438 0.15625 0 0.30078-0.019531 0.4375-0.0625 0.13281-0.039062 0.25781-0.10938 0.375-0.20312v0.79688c-0.14844 0.0625-0.30469 0.10156-0.46875 0.125-0.15625 0.03125-0.3125 0.046875-0.46875 0.046875-0.55469 0-0.98438-0.14062-1.2969-0.42188s-0.46875-0.67578-0.46875-1.1875c0-0.5 0.15625-0.89062 0.46875-1.1719 0.3125-0.28906 0.74219-0.4375 1.2969-0.4375 0.16406 0 0.32031 0.015625 0.46875 0.046875 0.15625 0.03125 0.3125 0.074219 0.46875 0.125z"/>
  </symbol>
 </defs>
 <g>
  <path d="m137.76 294.56c5.7109 0 11.426 0.22266 17.137 0.67188 2.5742 0.22266 5.1523 0.44922 7.7266 0.78516 0.55859 0.11328 5.4883 0.89453 1.5664 0.22266-3.9219-0.78516 2.3516 0.33594 3.0234 0.44922 10.641 1.793 21.281 4.3672 31.473 7.6172 4.9297 1.5664 9.8555 3.4727 14.672 5.375 4.7031 1.793-3.4727-1.6797-0.55859-0.22266 1.1211 0.55859 2.2383 1.0078 3.3594 1.457 2.6875 1.2305 5.375 2.4648 7.9531 3.8086 9.6328 4.8164 18.93 10.414 27.664 16.688 1.6797 1.1211 4.9297 2.6875 5.9375 4.3672-1.9023-3.1367-2.5742-2.0156-0.44922-0.33594 0.89453 0.78516 1.9023 1.5664 2.8008 2.3516 4.1445 3.4727 8.1758 6.9453 11.984 10.754 3.9219 3.6953 7.6172 7.6172 11.199 11.535 1.6797 1.793 3.2461 3.6953 4.8164 5.4883 0.78516 0.89453 1.5664 1.9023 2.3516 2.8008 0.44922 0.55859 0.89453 1.1211 1.3438 1.6797 1.457 1.9023 1.2305 1.5664-0.78516-1.1211 1.5664 0.89453 3.2461 4.4805 4.3672 5.9375 1.457 2.0156 2.8008 4.0312 4.1445 6.0469 3.1367 4.7031 6.0469 9.5195 8.7344 14.449 2.4648 4.4805 4.8164 9.0703 7.0547 13.777 0.55859 1.1211 1.0078 2.2383 1.5664 3.3594 1.0078 2.2383 2.4648 2.3516-0.22266-0.55859 1.5664 1.6797 2.4648 6.0469 3.2461 8.2891 4.1445 11.312 7.3906 22.961 9.5195 34.832 0.33594 2.0156 2.2383 7.168 1.457 9.0703-0.11328-1.0078-0.22266-1.9023-0.33594-2.9102 0.11328 1.0078 0.22266 2.0156 0.33594 3.0234 0.22266 1.5664 0.33594 3.0234 0.44922 4.5938 0.67188 6.7188 0.89453 13.551 0.89453 20.273 0 11.762 10.305 22.961 22.398 22.398 12.098-0.55859 22.398-9.8555 22.398-22.398-0.22266-48.719-15.008-97.664-43.457-137.43-28.785-40.207-68.098-70.449-114.46-87.695-25.871-9.6328-53.871-14.223-81.426-14.336-11.762 0-22.961 10.305-22.398 22.398 0.68359 12.203 9.9766 22.395 22.523 22.504z"/>
  <path d="m137.76 192.19c8.3984 0 16.801 0.33594 25.09 0.89453 4.1445 0.33594 8.2891 0.67187 12.32 1.1211 1.0078 0.11328 2.0156 0.22266 3.0234 0.33594 1.793 0.22266 3.1367-0.44922-1.3438-0.22266 2.1289-0.11328 4.7031 0.67188 6.832 1.0078 16.016 2.5742 31.809 6.2734 47.266 11.199 7.8398 2.4648 15.566 5.2656 23.297 8.3984 0.67188 0.33594 2.2383 0.67188 2.8008 1.1211 0 0-4.2578-1.793-1.9023-0.78516 1.793 0.78516 3.6953 1.5664 5.4883 2.3516 3.8086 1.6797 7.6172 3.5859 11.426 5.375 14.113 7.0547 27.664 15.121 40.656 24.078 3.2461 2.2383 6.3828 4.5938 9.5195 6.9453 0.55859 0.44922 2.0156 1.2305 2.3516 1.793-0.22266-0.33594-4.1445-3.2461-1.0078-0.78516 1.5664 1.2305 3.0234 2.4648 4.5938 3.6953 6.2734 5.1523 12.32 10.414 18.258 16.016 11.535 10.977 22.176 22.734 32.258 35.168 2.4648 3.1367-2.8008-3.6953 0.55859 0.67187 1.2305 1.5664 2.3516 3.1367 3.4727 4.7031 2.4648 3.3594 4.8164 6.832 7.168 10.305 4.3672 6.4961 8.5117 13.215 12.434 20.047 3.9219 6.832 7.6172 13.887 10.977 20.945 1.6797 3.5859 3.3594 7.168 4.9297 10.863 0.55859 1.3438 2.0156 3.0234-0.44922-1.2305 0.44922 0.78516 0.78516 1.9023 1.1211 2.8008 0.78516 1.793 1.457 3.6953 2.2383 5.6016 6.6094 17.137 11.762 34.832 15.457 52.863 0.89453 4.4805 1.6797 9.0703 2.4648 13.551 0.22266 1.6797 2.1289 8.7344 0.44922 2.4648 0.55859 2.1289 0.55859 4.7031 0.78516 6.9453 1.0078 9.6328 1.6797 19.152 1.9023 28.785 0.33594 11.762 10.078 22.961 22.398 22.398 11.871-0.55859 22.734-9.8555 22.398-22.398-1.6797-70.336-24.305-140-65.969-196.89-41.777-56.895-98.672-100.13-165.09-124.32-37.633-13.777-77.953-20.383-117.94-20.496-11.762 0-22.961 10.305-22.398 22.398 0.32422 11.984 9.6172 22.176 22.164 22.289z"/>
  <path d="m137.76 87.359c11.535 0 22.961 0.44922 34.496 1.3438 5.1523 0.44922 10.305 0.89453 15.457 1.5664 1.2305 0.11328 2.5742 0.33594 3.8086 0.44922 2.2383 0.33594 4.1445-0.67188-0.55859-0.11328 2.5742-0.33594 6.4961 0.89453 9.0703 1.3438 21.504 3.4727 42.672 8.625 63.281 15.344 9.9688 3.2461 19.824 6.832 29.457 10.863 1.9023 0.78516 5.2656 0.89453 0.11328 0 0.78516 0.11328 2.1289 0.89453 2.6875 1.2305 2.2383 1.0078 4.4805 2.0156 6.832 3.0234 4.9297 2.2383 9.8555 4.5938 14.672 7.0547 18.93 9.5195 37.07 20.496 54.32 32.703 4.0312 2.8008 7.9531 5.7109 11.871 8.7344 4.1445 3.1367-3.9219-3.1367 0.11328 0.11328 1.0078 0.78516 1.9023 1.5664 2.9102 2.2383 2.2383 1.793 4.5938 3.6953 6.832 5.6016 8.0625 6.7188 15.902 13.777 23.52 21.055 7.3906 7.168 14.559 14.559 21.391 22.176 3.2461 3.6953 6.4961 7.3906 9.6328 11.09 1.6797 2.0156 3.4727 4.1445 5.1523 6.2734 0.78516 1.0078 1.5664 1.9023 2.2383 2.9102 0.55859 0.78516 1.2305 1.5664 1.793 2.3516-1.9023-2.3516-2.2383-2.9102-1.2305-1.6797 12.434 16.91 24.078 34.047 34.273 52.305 5.1523 9.2969 9.9688 18.816 14.336 28.449 1.1211 2.4648 2.2383 4.9297 3.3594 7.5039 0.33594 0.78516 1.0078 1.9023 1.2305 2.6875-0.78516-5.1523-0.78516-1.793 0 0.11328 2.1289 5.0391 4.0312 10.191 5.9375 15.344 8.2891 22.734 14.672 46.145 18.93 69.887 0.55859 3.0234 1.0078 6.0469 1.5664 9.0703 0.11328 1.0078 0.33594 2.0156 0.44922 3.0234 0.22266 1.5664 2.0156 8.0625 0.22266 1.6797 1.5664 5.7109 1.457 12.543 2.0156 18.48 1.1211 12.543 1.5664 24.977 1.6797 37.52 0 11.762 10.305 22.961 22.398 22.398 12.098-0.55859 22.398-9.8555 22.398-22.398-0.11328-91.617-28.449-182.79-81.762-257.49-52.977-74.02-126.56-130.47-211.9-162.05-48.723-18.031-101.03-26.879-152.99-26.992-11.762 0-22.961 10.305-22.398 22.398 0.55859 12.211 9.8516 22.402 22.398 22.402z"/>
  <path d="m216.16 444.75c0 1.3438-0.11328 2.5742-0.11328 3.9219 0 3.1367 0.89453-4.3672 0.22266-1.3438-0.44922 2.2383-0.89453 4.3672-1.5664 6.6094 0.11328-0.22266-0.89453 2.8008-1.0078 2.8008 0.22266 0 2.3516-4.5938 0.22266-0.67188-1.1211 2.0156-2.8008 4.1445-3.8086 6.2734-1.2305 2.6875 3.5859-3.9219 0.33594-0.44922-0.67187 0.67188-1.3438 1.457-2.0156 2.1289-0.44922 0.44922-3.8086 4.1445-4.2578 3.9219 0.11328 0 4.3672-2.6875 0.44922-0.44922-1.0078 0.55859-2.0156 1.3438-3.1367 1.9023-0.89453 0.44922-1.793 0.89453-2.5742 1.3438-3.8086 2.1289 4.3672-1.2305-0.11328 0-1.9023 0.55859-3.8086 1.2305-5.8242 1.5664-0.44922 0.11328-1.0078 0.22266-1.457 0.33594-2.0156 0.33594-2.0156 0.33594 0 0 0.44922-0.11328 1.0078-0.11328 1.457-0.22266-0.78516 0.11328-1.5664 0.11328-2.3516 0.11328-1.9023 0.11328-5.1523-0.67188-7.0547-0.11328 2.5742-0.78516 4.0312 0.67188 1.457 0.22266-1.457-0.33594-2.9102-0.55859-4.3672-1.0078-1.0078-0.22266-1.9023-0.67188-2.8008-0.89453-4.5938-1.2305 3.0234 1.9023 0.55859 0.33594-1.793-1.2305-3.9219-2.0156-5.8242-3.1367-0.33594-0.22266-2.4648-1.457-2.4648-1.6797 0-0.22266 3.5859 3.2461 1.1211 0.78516-1.9023-1.793-3.6953-4.0312-5.6016-5.7109-2.1289-1.793 2.0156 3.5859 0.78516 1.0078-0.44922-1.0078-1.3438-2.0156-2.0156-3.0234-0.44922-0.67187-3.1367-4.7031-2.6875-5.2656 0.22266-0.22266 1.5664 4.5938 0.67188 1.2305-0.33594-1.2305-0.78516-2.3516-1.1211-3.5859-0.33594-1.2305-0.55859-2.4648-0.78516-3.6953-1.0078-4.3672 0 4.7031 0-0.11328v-6.2734c0.11328-4.5938-0.11328 1.457-0.33594 1.3438-0.33594-0.22266 0.55859-3.2461 0.67188-3.6953 0.11328-0.33594 1.457-6.4961 1.9023-6.3828 0.22266 0-2.5742 5.1523-0.44922 1.2305 0.67188-1.3438 1.3438-2.5742 2.1289-3.9219 0.44922-0.78516 1.1211-1.6797 1.5664-2.4648 2.2383-3.6953-0.78516 1.2305-0.89453 1.0078-0.22266-0.55859 4.5938-4.9297 5.0391-5.2656 0.33594-0.22266 2.0156-2.0156 2.2383-1.9023 0.22266 0.11328-4.0312 2.6875-1.0078 0.89453 2.1289-1.2305 4.1445-2.4648 6.3828-3.6953 4.1445-2.2383-3.4727 0.67188-0.55859 0.22266 1.1211-0.11328 2.4648-0.78516 3.5859-1.1211 1.9023-0.55859 4.0312-0.67188 5.9375-1.2305-4.4805 1.457-3.1367 0.33594-1.3438 0.33594 1.3438 0 2.5742-0.11328 3.9219-0.11328 1.0078 0 2.1289 0.11328 3.1367 0.11328 1.793 0.11328 1.0078 0-2.1289-0.33594 0.78516 0.11328 1.457 0.22266 2.2383 0.44922 0.55859 0.11328 7.9531 1.5664 7.9531 2.2383 0 0.22266-5.1523-2.5742-1.2305-0.44922 1.3438 0.67188 2.5742 1.3438 3.9219 2.1289 0.78516 0.44922 1.6797 1.1211 2.4648 1.5664 4.1445 2.4648-3.3594-3.2461 0.11328 0.11328 1.793 1.6797 3.4727 3.3594 5.1523 5.1523 3.0234 3.1367-1.0078-1.0078-0.78516-1.1211 0.33594-0.11328 2.1289 3.1367 2.4648 3.6953 0.44922 0.78516 1.0078 1.6797 1.457 2.5742 2.5742 4.8164 0.55859 0 0.11328 0 0.67187 0 2.1289 7.2812 2.2383 7.9531 0 0.22266 0.11328 0.44922 0.11328 0.78516 0.33594 2.0156 0.33594 2.0156 0 0-0.22266-2.0156-0.33594-1.9023-0.11328 0.11328-0.33984 0.89844-0.22656 1.9062-0.22656 2.918 0.22266 11.762 10.191 22.961 22.398 22.398 11.984-0.55859 22.625-9.8555 22.398-22.398-0.44922-31.246-19.824-57.793-48.945-68.656-26.992-10.078-60.258-1.0078-78.625 21.055-19.824 23.742-23.855 57.793-7.7266 84.785s47.152 39.648 77.727 33.938c33.488-6.1602 57.008-37.855 57.566-71.121 0.22266-11.762-10.414-22.961-22.398-22.398-12.316 0.55469-22.281 9.8516-22.395 22.398z"/>
   
 </g>
</svg>
